<?xml version="1.0" encoding="UTF-8" standalone="no"?>
<!-- Created with Inkscape (http://www.inkscape.org/) -->

<svg
   width="210mm"
   height="297mm"
   viewBox="0 0 210 297"
   version="1.1"
   id="svg8"
   inkscape:version="1.2.1 (9c6d41e410, 2022-07-14, custom)"
   sodipodi:docname="adam-inverted.svg"
   xmlns:inkscape="http://www.inkscape.org/namespaces/inkscape"
   xmlns:sodipodi="http://sodipodi.sourceforge.net/DTD/sodipodi-0.dtd"
   xmlns="http://www.w3.org/2000/svg"
   xmlns:svg="http://www.w3.org/2000/svg"
   xmlns:rdf="http://www.w3.org/1999/02/22-rdf-syntax-ns#"
   xmlns:cc="http://creativecommons.org/ns#"
   xmlns:dc="http://purl.org/dc/elements/1.1/">
  <defs
     id="defs2">
    <filter
       style="color-interpolation-filters:sRGB;"
       inkscape:label="Invert"
       id="filter2278"
       x="-0.0025605004"
       y="-0.0035181252"
       width="1.0037596"
       height="1.0075055">
      <feColorMatrix
         values="-1 0 0 0 1 0 -1 0 0 1 0 0 -1 0 1 0.21 0.72 0.07 0.54 0 "
         result="fbSourceGraphic"
         id="feColorMatrix2276" />
      <feColorMatrix
         result="fbSourceGraphicAlpha"
         in="fbSourceGraphic"
         values="0 0 0 -1 0 0 0 0 -1 0 0 0 0 -1 0 0 0 0 1 0"
         id="feColorMatrix2296" />
      <feColorMatrix
         id="feColorMatrix2298"
         values="-1 0 0 0 1 0 -1 0 0 1 0 0 -1 0 1 0.21 0.72 0.07 0.54 0 "
         result="fbSourceGraphic"
         in="fbSourceGraphic" />
      <feColorMatrix
         result="fbSourceGraphicAlpha"
         in="fbSourceGraphic"
         values="0 0 0 -1 0 0 0 0 -1 0 0 0 0 -1 0 0 0 0 1 0"
         id="feColorMatrix2316" />
      <feColorMatrix
         id="feColorMatrix2318"
         values="-1 0 0 0 1 0 -1 0 0 1 0 0 -1 0 1 0.21 0.72 0.07 0.54 0 "
         result="color2"
         in="fbSourceGraphic" />
    </filter>
    <filter
       style="color-interpolation-filters:sRGB;"
       inkscape:label="Invert"
       id="filter2282"
       x="-0.00036669966"
       y="-0.0005283651"
       width="1.0007334"
       height="1.0010586">
      <feColorMatrix
         values="-1 0 0 0 1 0 -1 0 0 1 0 0 -1 0 1 0.21 0.72 0.07 0.54 0 "
         result="fbSourceGraphic"
         id="feColorMatrix2280" />
      <feColorMatrix
         result="fbSourceGraphicAlpha"
         in="fbSourceGraphic"
         values="0 0 0 -1 0 0 0 0 -1 0 0 0 0 -1 0 0 0 0 1 0"
         id="feColorMatrix2300" />
      <feColorMatrix
         id="feColorMatrix2302"
         values="-1 0 0 0 1 0 -1 0 0 1 0 0 -1 0 1 0.21 0.72 0.07 0.54 0 "
         result="fbSourceGraphic"
         in="fbSourceGraphic" />
      <feColorMatrix
         result="fbSourceGraphicAlpha"
         in="fbSourceGraphic"
         values="0 0 0 -1 0 0 0 0 -1 0 0 0 0 -1 0 0 0 0 1 0"
         id="feColorMatrix2320" />
      <feColorMatrix
         id="feColorMatrix2322"
         values="-1 0 0 0 1 0 -1 0 0 1 0 0 -1 0 1 0.21 0.72 0.07 0.54 0 "
         result="color2"
         in="fbSourceGraphic" />
    </filter>
    <filter
       style="color-interpolation-filters:sRGB;"
       inkscape:label="Invert"
       id="filter2286"
       x="-0.0022018268"
       y="-0.0021376508"
       width="1.0044103"
       height="1.00431">
      <feColorMatrix
         values="-1 0 0 0 1 0 -1 0 0 1 0 0 -1 0 1 0.21 0.72 0.07 0.54 0 "
         result="fbSourceGraphic"
         id="feColorMatrix2284" />
      <feColorMatrix
         result="fbSourceGraphicAlpha"
         in="fbSourceGraphic"
         values="0 0 0 -1 0 0 0 0 -1 0 0 0 0 -1 0 0 0 0 1 0"
         id="feColorMatrix2304" />
      <feColorMatrix
         id="feColorMatrix2306"
         values="-1 0 0 0 1 0 -1 0 0 1 0 0 -1 0 1 0.21 0.72 0.07 0.54 0 "
         result="fbSourceGraphic"
         in="fbSourceGraphic" />
      <feColorMatrix
         result="fbSourceGraphicAlpha"
         in="fbSourceGraphic"
         values="0 0 0 -1 0 0 0 0 -1 0 0 0 0 -1 0 0 0 0 1 0"
         id="feColorMatrix2324" />
      <feColorMatrix
         id="feColorMatrix2326"
         values="-1 0 0 0 1 0 -1 0 0 1 0 0 -1 0 1 0.21 0.72 0.07 0.54 0 "
         result="color2"
         in="fbSourceGraphic" />
    </filter>
    <filter
       style="color-interpolation-filters:sRGB;"
       inkscape:label="Invert"
       id="filter2290"
       x="-0.0020930175"
       y="-0.0020849407"
       width="1.0042193"
       height="1.0042006">
      <feColorMatrix
         values="-1 0 0 0 1 0 -1 0 0 1 0 0 -1 0 1 0.21 0.72 0.07 0.54 0 "
         result="fbSourceGraphic"
         id="feColorMatrix2288" />
      <feColorMatrix
         result="fbSourceGraphicAlpha"
         in="fbSourceGraphic"
         values="0 0 0 -1 0 0 0 0 -1 0 0 0 0 -1 0 0 0 0 1 0"
         id="feColorMatrix2308" />
      <feColorMatrix
         id="feColorMatrix2310"
         values="-1 0 0 0 1 0 -1 0 0 1 0 0 -1 0 1 0.21 0.72 0.07 0.54 0 "
         result="fbSourceGraphic"
         in="fbSourceGraphic" />
      <feColorMatrix
         result="fbSourceGraphicAlpha"
         in="fbSourceGraphic"
         values="0 0 0 -1 0 0 0 0 -1 0 0 0 0 -1 0 0 0 0 1 0"
         id="feColorMatrix2328" />
      <feColorMatrix
         id="feColorMatrix2330"
         values="-1 0 0 0 1 0 -1 0 0 1 0 0 -1 0 1 0.21 0.72 0.07 0.54 0 "
         result="color2"
         in="fbSourceGraphic" />
    </filter>
    <filter
       style="color-interpolation-filters:sRGB;"
       inkscape:label="Invert"
       id="filter2294"
       x="-0.00023731044"
       y="-0.00071086933"
       width="1.0004706"
       height="1.0014216">
      <feColorMatrix
         values="-1 0 0 0 1 0 -1 0 0 1 0 0 -1 0 1 0.21 0.72 0.07 0.54 0 "
         result="fbSourceGraphic"
         id="feColorMatrix2292" />
      <feColorMatrix
         result="fbSourceGraphicAlpha"
         in="fbSourceGraphic"
         values="0 0 0 -1 0 0 0 0 -1 0 0 0 0 -1 0 0 0 0 1 0"
         id="feColorMatrix2312" />
      <feColorMatrix
         id="feColorMatrix2314"
         values="-1 0 0 0 1 0 -1 0 0 1 0 0 -1 0 1 0.21 0.72 0.07 0.54 0 "
         result="fbSourceGraphic"
         in="fbSourceGraphic" />
      <feColorMatrix
         result="fbSourceGraphicAlpha"
         in="fbSourceGraphic"
         values="0 0 0 -1 0 0 0 0 -1 0 0 0 0 -1 0 0 0 0 1 0"
         id="feColorMatrix2332" />
      <feColorMatrix
         id="feColorMatrix2334"
         values="-1 0 0 0 1 0 -1 0 0 1 0 0 -1 0 1 0.21 0.72 0.07 0.54 0 "
         result="color2"
         in="fbSourceGraphic" />
    </filter>
  </defs>
  <sodipodi:namedview
     id="base"
     pagecolor="#0a0a0a"
     bordercolor="#666666"
     borderopacity="1.0"
     inkscape:pageopacity="0"
     inkscape:pageshadow="2"
     inkscape:zoom="0.97391865"
     inkscape:cx="396.85039"
     inkscape:cy="355.26581"
     inkscape:document-units="mm"
     inkscape:current-layer="g1240"
     showgrid="false"
     inkscape:window-width="1440"
     inkscape:window-height="2523"
     inkscape:window-x="2560"
     inkscape:window-y="7"
     inkscape:window-maximized="1"
     showguides="false"
     inkscape:showpageshadow="0"
     inkscape:pagecheckerboard="0"
     inkscape:deskcolor="#202020" />
  <metadata
     id="metadata5">
    <rdf:RDF>
      <cc:Work
         rdf:about="">
        <dc:format>image/svg+xml</dc:format>
        <dc:type
           rdf:resource="http://purl.org/dc/dcmitype/StillImage" />
      </cc:Work>
    </rdf:RDF>
  </metadata>
  <g
     inkscape:groupmode="layer"
     id="layer2"
     inkscape:label="Base"
     style="display:none"
     sodipodi:insensitive="true">
    <g
       id="g1184">
      <path
         sodipodi:nodetypes="cc"
         inkscape:connector-curvature="0"
         id="path858"
         d="m 67.27976,113.20908 c 18.996516,-34.574461 64.85715,-31.230059 83.34375,3.02381"
         style="fill:none;stroke:#1a00ed;stroke-width:0.76499999;stroke-linecap:butt;stroke-linejoin:miter;stroke-miterlimit:4;stroke-dasharray:none;stroke-opacity:1" />
      <path
         sodipodi:nodetypes="cscc"
         inkscape:connector-curvature="0"
         id="path860"
         d="m 150.62351,116.23289 c 8.10546,24.88543 0.53139,42.97383 -4.31335,57.27831 -16.10377,47.54756 -107.051884,23.04524 -79.030399,-60.30212 v 0"
         style="display:inline;fill:none;stroke:#2e19da;stroke-width:0.86500001;stroke-linecap:butt;stroke-linejoin:miter;stroke-miterlimit:4;stroke-dasharray:none;stroke-opacity:1" />
      <path
         sodipodi:nodetypes="ccccc"
         inkscape:connector-curvature="0"
         id="path862"
         d="m 62.674704,133.16378 c 48.269886,17.18366 71.599686,13.21494 91.360236,5.76091 l 0.44684,-0.14825 v 0 0"
         style="display:inline;fill:none;stroke:#321de5;stroke-width:0.76499999;stroke-linecap:butt;stroke-linejoin:miter;stroke-miterlimit:4;stroke-dasharray:none;stroke-opacity:1" />
      <path
         sodipodi:nodetypes="csssc"
         inkscape:connector-curvature="0"
         id="path864"
         d="m 67.279761,113.20908 c -0.843822,-0.67081 -0.700194,-1.27122 -2.131514,-1.39929 -1.996175,-0.1786 -5.597159,-0.16449 -7.050996,0.0698 -4.718673,0.76038 -6.845596,4.20258 -6.544874,6.77671 0.380819,3.25976 5.104312,7.65736 11.823909,7.92599"
         style="display:inline;fill:none;stroke:#1910e6;stroke-width:0.56500006;stroke-linecap:butt;stroke-linejoin:miter;stroke-miterlimit:4;stroke-dasharray:none;stroke-opacity:1" />
      <path
         sodipodi:nodetypes="cscc"
         inkscape:connector-curvature="0"
         id="path866"
         d="m 150.62351,116.23289 c 8.56979,-5.65243 11.10371,-1.48791 10.60083,6.25344 -0.27269,4.19796 -5.13255,8.03137 -7.31715,8.51125 v -0.0236"
         style="display:inline;fill:none;stroke:#1d15d8;stroke-width:0.76499999;stroke-linecap:butt;stroke-linejoin:miter;stroke-miterlimit:4;stroke-dasharray:none;stroke-opacity:1" />
      <path
         sodipodi:nodetypes="csssssc"
         inkscape:connector-curvature="0"
         id="path909"
         d="m 74.508555,108.86235 c 8.01616,-1.20817 10.547731,-1.10107 15.249242,-0.43785 6.08023,0.85771 11.609013,2.9943 16.883043,4.6369 0.99883,0.31108 3.01325,-0.4444 3.67164,-0.56477 2.15565,-0.3941 2.16121,-1.93846 8.91463,-2.44008 2.74059,-0.20356 7.82699,0.43086 12.82607,-0.20313 6.53826,-0.82919 8.26385,-0.50902 10.3021,-0.89657"
         style="fill:none;fill-opacity:1;stroke:#ff0800;stroke-width:0.26458332px;stroke-linecap:butt;stroke-linejoin:miter;stroke-opacity:1" />
      <path
         sodipodi:nodetypes="cc"
         inkscape:connector-curvature="0"
         id="path913"
         d="m 74.03366,112.41698 c 0.279861,-1.15828 0.544296,-2.31994 0.474895,-3.55463"
         style="fill:none;stroke:#ff0000;stroke-width:0.26458332px;stroke-linecap:butt;stroke-linejoin:miter;stroke-opacity:1" />
      <path
         sodipodi:nodetypes="cc"
         inkscape:connector-curvature="0"
         id="path915"
         d="m 78.176336,112.38357 c -0.751348,-0.46468 -2.458934,-0.20663 -4.142676,0.0334"
         style="fill:none;stroke:#ff0000;stroke-width:0.26458332px;stroke-linecap:butt;stroke-linejoin:miter;stroke-opacity:1" />
      <path
         sodipodi:nodetypes="cscsscsssscc"
         inkscape:connector-curvature="0"
         id="path917"
         d="m 78.176336,112.38357 c 0.112615,1.5694 0.08691,3.36112 -0.394525,4.85361 -1.901096,5.89355 -4.50497,13.18602 -1.973696,15.27617 8.418044,5.41342 15.788372,4.37069 22.360102,2.692 6.770853,-1.72955 9.160583,-5.56983 8.570973,-12.54305 -0.17299,-2.04592 1.45015,-2.96151 1.45939,-3.00578 1.16744,1.22439 0.99688,5.82374 1.13377,9.46195 0.079,2.09912 1.10027,3.80566 1.73561,4.88491 1.3699,2.32704 7.46588,4.20482 25.01419,2.84727 6.21084,-0.48048 9.51223,-12.29735 3.67724,-18.82173 -0.60527,-0.67678 -0.16895,-0.79216 -0.71242,-4.17537 0.88323,-0.32452 2.93332,-0.14608 4.31231,-0.0657"
         style="fill:none;stroke:#f60000;stroke-width:0.26458332px;stroke-linecap:butt;stroke-linejoin:miter;stroke-opacity:1" />
      <path
         inkscape:connector-curvature="0"
         id="path919"
         d="m 142.35528,108.95685 1.004,4.831"
         style="fill:none;stroke:#ff0000;stroke-width:0.26458332px;stroke-linecap:butt;stroke-linejoin:miter;stroke-opacity:1" />
      <path
         sodipodi:nodetypes="cc"
         inkscape:connector-curvature="0"
         id="path921"
         d="m 58.699069,111.04722 c 4.234948,-2.05885 9.708337,-2.52542 15.809486,-2.18487"
         style="fill:none;stroke:#ff0202;stroke-width:0.26458332px;stroke-linecap:butt;stroke-linejoin:miter;stroke-opacity:1" />
      <path
         sodipodi:nodetypes="ccc"
         inkscape:connector-curvature="0"
         id="path923"
         d="m 142.35528,108.95685 c -0.37374,-2.64899 20.25881,-0.96115 19.57664,9.1062 l -0.30068,-0.13363"
         style="fill:none;stroke:#fc0000;stroke-width:0.26458332px;stroke-linecap:butt;stroke-linejoin:miter;stroke-opacity:1" />
      <path
         sodipodi:nodetypes="cc"
         inkscape:connector-curvature="0"
         id="path937"
         d="m 80.510433,125.66868 c 0.488411,-22.02776 24.197637,-17.96178 22.768027,1.41987"
         style="display:inline;fill:none;stroke:#34ff00;stroke-width:0.26458332px;stroke-linecap:butt;stroke-linejoin:miter;stroke-opacity:1" />
      <path
         sodipodi:nodetypes="cc"
         inkscape:connector-curvature="0"
         id="path939"
         d="m 111.74044,126.81613 c -1.56188,-17.08307 27.39729,-25.69691 24.85193,2.76395"
         style="display:inline;fill:none;stroke:#34ff00;stroke-width:0.26458332px;stroke-linecap:butt;stroke-linejoin:miter;stroke-opacity:1" />
      <path
         d="m 131.84726,117.36848 a 8.1678295,8.1796417 0 0 1 -5.34624,10.25318 8.1678295,8.1796417 0 0 1 -10.23918,-5.35242 8.1678295,8.1796417 0 0 1 5.34312,-10.2548 8.1678295,8.1796417 0 0 1 10.24081,5.34929"
         sodipodi:open="true"
         sodipodi:end="5.9784857"
         sodipodi:start="5.9790944"
         sodipodi:ry="8.1796417"
         sodipodi:rx="8.1678295"
         sodipodi:cy="119.81767"
         sodipodi:cx="124.05418"
         sodipodi:type="arc"
         id="path941"
         style="display:inline;opacity:1;fill:none;fill-opacity:1;stroke:#34ff00;stroke-width:0.26499999;stroke-miterlimit:4;stroke-dasharray:none;stroke-opacity:1" />
      <path
         d="m 99.017987,116.45271 a 7.7549682,8.0173454 0 0 1 -5.076002,10.04974 7.7549682,8.0173454 0 0 1 -9.721625,-5.24621 7.7549682,8.0173454 0 0 1 5.073044,-10.05134 7.7549682,8.0173454 0 0 1 9.723168,5.24315"
         sodipodi:open="true"
         sodipodi:end="5.9784857"
         sodipodi:start="5.9790944"
         sodipodi:ry="8.0173454"
         sodipodi:rx="7.7549682"
         sodipodi:cy="118.85331"
         sodipodi:cx="91.61882"
         sodipodi:type="arc"
         id="path941-3"
         style="display:inline;opacity:1;fill:none;fill-opacity:1;stroke:#34ff00;stroke-width:0.2556411;stroke-miterlimit:4;stroke-dasharray:none;stroke-opacity:1" />
      <path
         sodipodi:nodetypes="cc"
         inkscape:connector-curvature="0"
         id="path999"
         d="m 94.742092,111.55543 c -0.08432,0.30416 -4.666483,4.48077 4.523904,6.70908"
         style="fill:none;stroke:#00ff00;stroke-width:0.26458332px;stroke-linecap:butt;stroke-linejoin:miter;stroke-opacity:1" />
      <path
         sodipodi:nodetypes="cc"
         inkscape:connector-curvature="0"
         id="path927"
         d="m 55.875404,119.66589 c 2.55236,-3.58922 5.24339,-4.54372 8.15172,-1.36976"
         style="display:inline;fill:none;stroke:#ff0000;stroke-width:0.26458332px;stroke-linecap:butt;stroke-linejoin:miter;stroke-opacity:1" />
      <path
         sodipodi:nodetypes="csc"
         inkscape:connector-curvature="0"
         id="path931"
         d="m 61.755334,120.16702 c 4.77823,-3.94431 -5.66818,-1.0137 -4.7941,0.29921 0.38933,0.58479 2.46207,2.79325 5.9634,3.27552"
         style="display:inline;fill:none;stroke:#ff0000;stroke-width:0.26458332px;stroke-linecap:butt;stroke-linejoin:miter;stroke-opacity:1" />
      <path
         sodipodi:nodetypes="cc"
         inkscape:connector-curvature="0"
         id="path933"
         d="m 152.25946,121.26951 c 1.75752,-2.20493 4.14422,-2.52011 7.25803,-0.65147"
         style="display:inline;fill:none;stroke:#ff0000;stroke-width:0.26458332px;stroke-linecap:butt;stroke-linejoin:miter;stroke-opacity:1" />
      <path
         sodipodi:nodetypes="csssc"
         inkscape:connector-curvature="0"
         id="path935"
         d="m 152.92764,122.14648 c -0.28692,-0.43366 1.47514,-0.78365 1.66651,-0.76979 0.31284,0.0227 2.8576,0.4956 1.94081,2.85246 -0.27978,0.71926 -1.17748,0.91638 -1.60238,0.98519 -0.86241,0.13967 -1.31434,-0.53585 -1.46205,-0.45363"
         style="display:inline;fill:none;stroke:#ff0000;stroke-width:0.26458332px;stroke-linecap:butt;stroke-linejoin:miter;stroke-opacity:1" />
      <path
         sodipodi:nodetypes="cc"
         inkscape:connector-curvature="0"
         id="path1001"
         d="m 127.44516,112.4162 c -1.36077,4.31903 0.82827,6.03991 4.68557,6.53976"
         style="display:inline;fill:none;stroke:#00ff00;stroke-width:0.26458332px;stroke-linecap:butt;stroke-linejoin:miter;stroke-opacity:1" />
      <path
         sodipodi:nodetypes="cscc"
         inkscape:connector-curvature="0"
         id="path1057"
         d="m 89.401654,146.05953 c 1.670629,1.47078 3.030081,2.8001 5.473758,3.75526 8.989438,3.51372 22.602478,3.22027 28.870378,-2.28527 l -0.13364,0.0668"
         style="fill:none;stroke:#f800fb;stroke-width:0.26458332px;stroke-linecap:butt;stroke-linejoin:miter;stroke-opacity:1" />
      <path
         sodipodi:nodetypes="cc"
         inkscape:connector-curvature="0"
         id="path1059"
         d="m 89.902786,146.56067 c -2.412445,17.95089 28.043414,13.09412 30.861274,2.93996"
         style="fill:none;stroke:#fa00fd;stroke-width:0.26458332px;stroke-linecap:butt;stroke-linejoin:miter;stroke-opacity:1" />
      <path
         sodipodi:nodetypes="cc"
         inkscape:connector-curvature="0"
         id="path1061"
         d="m 89.805895,149.97888 c 3.56396,-0.0343 21.481995,8.10696 26.576455,4.67746"
         style="display:inline;fill:none;stroke:#fc00ff;stroke-width:0.26458332px;stroke-linecap:butt;stroke-linejoin:miter;stroke-opacity:1" />
      <path
         sodipodi:nodetypes="ccc"
         inkscape:connector-curvature="0"
         id="path1078"
         d="m 106.73033,133.83515 c -1.14504,3.24364 -10.623526,8.3969 1.23612,9.05375 l -0.13363,0.26727"
         style="display:inline;fill:none;stroke:#00d8ff;stroke-width:0.26458332px;stroke-linecap:butt;stroke-linejoin:miter;stroke-opacity:1" />
    </g>
  </g>
  <g
     style="display:inline"
     inkscape:label="Final"
     id="g1240"
     inkscape:groupmode="layer">
    <g
       id="g1238"
       style="stroke:#000001;stroke-opacity:1;filter:url(#filter2278)">
      <path
         style="fill:none;stroke:#000001;stroke-width:0.76499999;stroke-linecap:butt;stroke-linejoin:miter;stroke-miterlimit:4;stroke-dasharray:none;stroke-opacity:1"
         d="m 67.27976,113.20908 c 18.996516,-34.574461 64.85715,-31.230059 83.34375,3.02381"
         id="path1186"
         inkscape:connector-curvature="0"
         sodipodi:nodetypes="cc" />
      <path
         style="display:inline;fill:none;stroke:#000001;stroke-width:0.86500001;stroke-linecap:butt;stroke-linejoin:miter;stroke-miterlimit:4;stroke-dasharray:none;stroke-opacity:1"
         d="m 150.62351,116.23289 c 8.10546,24.88543 0.53139,42.97383 -4.31335,57.27831 -16.10377,47.54756 -107.051884,23.04524 -79.030399,-60.30212 v 0"
         id="path1188"
         inkscape:connector-curvature="0"
         sodipodi:nodetypes="cscc" />
      <path
         style="display:inline;fill:none;stroke:#000001;stroke-width:0.76499999;stroke-linecap:butt;stroke-linejoin:miter;stroke-miterlimit:4;stroke-dasharray:none;stroke-opacity:1"
         d="m 62.674704,133.16378 c 48.269886,17.18366 71.599686,13.21494 91.360236,5.76091 l 0.44684,-0.14825 v 0 0"
         id="path1190"
         inkscape:connector-curvature="0"
         sodipodi:nodetypes="ccccc" />
      <path
         style="display:inline;fill:none;stroke:#000001;stroke-width:0.56500006;stroke-linecap:butt;stroke-linejoin:miter;stroke-miterlimit:4;stroke-dasharray:none;stroke-opacity:1"
         d="m 67.279761,113.20908 c -0.843822,-0.67081 -0.700194,-1.27122 -2.131514,-1.39929 -1.996175,-0.1786 -5.597159,-0.16449 -7.050996,0.0698 -4.718673,0.76038 -6.845596,4.20258 -6.544874,6.77671 0.380819,3.25976 5.104312,7.65736 11.823909,7.92599"
         id="path1192"
         inkscape:connector-curvature="0"
         sodipodi:nodetypes="csssc" />
      <path
         style="display:inline;fill:none;stroke:#000001;stroke-width:0.76499999;stroke-linecap:butt;stroke-linejoin:miter;stroke-miterlimit:4;stroke-dasharray:none;stroke-opacity:1"
         d="m 150.62351,116.23289 c 8.56979,-5.65243 11.10371,-1.48791 10.60083,6.25344 -0.27269,4.19796 -5.13255,8.03137 -7.31715,8.51125 v -0.0236"
         id="path1194"
         inkscape:connector-curvature="0"
         sodipodi:nodetypes="cscc" />
      <path
         style="fill:none;fill-opacity:1;stroke:#000001;stroke-width:0.265;stroke-linecap:round;stroke-linejoin:round;stroke-opacity:1;stroke-miterlimit:4;stroke-dasharray:none"
         d="m 74.508555,108.86235 c 8.01616,-1.20817 10.547731,-1.10107 15.249242,-0.43785 6.08023,0.85771 11.609013,2.9943 16.883043,4.6369 0.99883,0.31108 3.01325,-0.4444 3.67164,-0.56477 2.15565,-0.3941 2.16121,-1.93846 8.91463,-2.44008 2.74059,-0.20356 7.82699,0.43086 12.82607,-0.20313 6.53826,-0.82919 8.26385,-0.50902 10.3021,-0.89657"
         id="path1196"
         inkscape:connector-curvature="0"
         sodipodi:nodetypes="csssssc" />
      <path
         style="fill:none;stroke:#000001;stroke-width:0.265;stroke-linecap:round;stroke-linejoin:round;stroke-opacity:1;stroke-miterlimit:4;stroke-dasharray:none"
         d="m 74.03366,112.41698 c 0.279861,-1.15828 0.544296,-2.31994 0.474895,-3.55463"
         id="path1198"
         inkscape:connector-curvature="0"
         sodipodi:nodetypes="cc" />
      <path
         style="fill:none;stroke:#000001;stroke-width:0.265;stroke-linecap:round;stroke-linejoin:round;stroke-opacity:1;stroke-miterlimit:4;stroke-dasharray:none"
         d="m 78.176336,112.38357 c -0.751348,-0.46468 -2.458934,-0.20663 -4.142676,0.0334"
         id="path1200"
         inkscape:connector-curvature="0"
         sodipodi:nodetypes="cc" />
      <path
         style="fill:none;stroke:#000001;stroke-width:0.265;stroke-linecap:round;stroke-linejoin:round;stroke-opacity:1;stroke-miterlimit:4;stroke-dasharray:none"
         d="m 78.176336,112.38357 c 0.112615,1.5694 0.08691,3.36112 -0.394525,4.85361 -1.901096,5.89355 -4.50497,13.18602 -1.973696,15.27617 8.418044,5.41342 15.788372,4.37069 22.360102,2.692 6.770853,-1.72955 9.160583,-5.56983 8.570973,-12.54305 -0.17299,-2.04592 1.45015,-2.96151 1.45939,-3.00578 1.16744,1.22439 0.99688,5.82374 1.13377,9.46195 0.079,2.09912 1.10027,3.80566 1.73561,4.88491 1.3699,2.32704 7.46588,4.20482 25.01419,2.84727 6.21084,-0.48048 9.51223,-12.29735 3.67724,-18.82173 -0.60527,-0.67678 -0.16895,-0.79216 -0.71242,-4.17537 0.88323,-0.32452 2.93332,-0.14608 4.31231,-0.0657"
         id="path1202"
         inkscape:connector-curvature="0"
         sodipodi:nodetypes="cscsscsssscc" />
      <path
         style="fill:none;stroke:#000001;stroke-width:0.265;stroke-linecap:round;stroke-linejoin:round;stroke-opacity:1;stroke-miterlimit:4;stroke-dasharray:none"
         d="m 142.35528,108.95685 1.004,4.831"
         id="path1204"
         inkscape:connector-curvature="0" />
      <path
         style="fill:none;stroke:#000001;stroke-width:0.265;stroke-linecap:round;stroke-linejoin:round;stroke-opacity:1;stroke-miterlimit:4;stroke-dasharray:none"
         d="m 58.699069,111.04722 c 4.234948,-2.05885 9.708337,-2.52542 15.809486,-2.18487"
         id="path1206"
         inkscape:connector-curvature="0"
         sodipodi:nodetypes="cc" />
      <path
         style="fill:none;stroke:#000001;stroke-width:0.265;stroke-linecap:round;stroke-linejoin:round;stroke-opacity:1;stroke-miterlimit:4;stroke-dasharray:none"
         d="m 142.35528,108.95685 c -0.37374,-2.64899 20.25881,-0.96115 19.57664,9.1062 l -0.30068,-0.13363"
         id="path1208"
         inkscape:connector-curvature="0"
         sodipodi:nodetypes="ccc" />
      <path
         style="display:inline;fill:none;stroke:#000001;stroke-width:0.26458332px;stroke-linecap:butt;stroke-linejoin:miter;stroke-opacity:1"
         d="m 80.510433,125.66868 c 0.488411,-22.02776 24.197637,-17.96178 22.768027,1.41987"
         id="path1210"
         inkscape:connector-curvature="0"
         sodipodi:nodetypes="cc" />
      <path
         style="display:inline;fill:none;stroke:#000001;stroke-width:0.26458332px;stroke-linecap:butt;stroke-linejoin:miter;stroke-opacity:1"
         d="m 111.74044,126.81613 c -1.56188,-17.08307 27.39729,-25.69691 24.85193,2.76395"
         id="path1212"
         inkscape:connector-curvature="0"
         sodipodi:nodetypes="cc" />
      <path
         style="display:inline;opacity:1;fill:none;fill-opacity:1;stroke:#000001;stroke-width:0.26499999;stroke-miterlimit:4;stroke-dasharray:none;stroke-opacity:1"
         id="path1214"
         sodipodi:type="arc"
         sodipodi:cx="124.05418"
         sodipodi:cy="119.81767"
         sodipodi:rx="8.1678295"
         sodipodi:ry="8.1796417"
         sodipodi:start="5.9790944"
         sodipodi:end="5.9784857"
         sodipodi:open="true"
         d="m 131.84726,117.36848 a 8.1678295,8.1796417 0 0 1 -5.34624,10.25318 8.1678295,8.1796417 0 0 1 -10.23918,-5.35242 8.1678295,8.1796417 0 0 1 5.34312,-10.2548 8.1678295,8.1796417 0 0 1 10.24081,5.34929" />
      <path
         style="display:inline;opacity:1;fill:none;fill-opacity:1;stroke:#000001;stroke-width:0.2556411;stroke-miterlimit:4;stroke-dasharray:none;stroke-opacity:1"
         id="path1216"
         sodipodi:type="arc"
         sodipodi:cx="91.61882"
         sodipodi:cy="118.85331"
         sodipodi:rx="7.7549682"
         sodipodi:ry="8.0173454"
         sodipodi:start="5.9790944"
         sodipodi:end="5.9784857"
         sodipodi:open="true"
         d="m 99.017987,116.45271 a 7.7549682,8.0173454 0 0 1 -5.076002,10.04974 7.7549682,8.0173454 0 0 1 -9.721625,-5.24621 7.7549682,8.0173454 0 0 1 5.073044,-10.05134 7.7549682,8.0173454 0 0 1 9.723168,5.24315" />
      <path
         style="fill:none;stroke:#000001;stroke-width:0.26458332px;stroke-linecap:butt;stroke-linejoin:miter;stroke-opacity:1"
         d="m 94.742092,111.55543 c -0.08432,0.30416 -4.666483,4.48077 4.523904,6.70908"
         id="path1218"
         inkscape:connector-curvature="0"
         sodipodi:nodetypes="cc" />
      <path
         style="display:inline;fill:none;stroke:#000001;stroke-width:0.26458332px;stroke-linecap:round;stroke-linejoin:miter;stroke-opacity:1"
         d="m 55.875404,119.66589 c 2.55236,-3.58922 5.24339,-4.54372 8.15172,-1.36976"
         id="path1220"
         inkscape:connector-curvature="0"
         sodipodi:nodetypes="cc" />
      <path
         style="display:inline;fill:none;stroke:#000001;stroke-width:0.26458332px;stroke-linecap:round;stroke-linejoin:miter;stroke-opacity:1"
         d="m 61.755334,120.16702 c 4.77823,-3.94431 -5.66818,-1.0137 -4.7941,0.29921 0.38933,0.58479 2.46207,2.79325 5.9634,3.27552"
         id="path1222"
         inkscape:connector-curvature="0"
         sodipodi:nodetypes="csc" />
      <path
         style="display:inline;fill:none;stroke:#000001;stroke-width:0.26458332px;stroke-linecap:round;stroke-linejoin:miter;stroke-opacity:1"
         d="m 152.25946,121.26951 c 1.75752,-2.20493 4.14422,-2.52011 7.25803,-0.65147"
         id="path1224"
         inkscape:connector-curvature="0"
         sodipodi:nodetypes="cc" />
      <path
         style="display:inline;fill:none;stroke:#000001;stroke-width:0.26458332px;stroke-linecap:round;stroke-linejoin:miter;stroke-opacity:1"
         d="m 152.92764,122.14648 c -0.28692,-0.43366 1.47514,-0.78365 1.66651,-0.76979 0.31284,0.0227 2.8576,0.4956 1.94081,2.85246 -0.27978,0.71926 -1.17748,0.91638 -1.60238,0.98519 -0.86241,0.13967 -1.31434,-0.53585 -1.46205,-0.45363"
         id="path1226"
         inkscape:connector-curvature="0"
         sodipodi:nodetypes="csssc" />
      <path
         style="display:inline;fill:none;stroke:#000001;stroke-width:0.26458332px;stroke-linecap:butt;stroke-linejoin:miter;stroke-opacity:1"
         d="m 127.44516,112.4162 c -1.36077,4.31903 0.82827,6.03991 4.68557,6.53976"
         id="path1228"
         inkscape:connector-curvature="0"
         sodipodi:nodetypes="cc" />
      <path
         style="fill:none;stroke:#000001;stroke-width:0.26458332px;stroke-linecap:round;stroke-linejoin:round;stroke-opacity:1"
         d="m 89.401654,146.05953 c 1.670629,1.47078 3.030081,2.8001 5.473758,3.75526 8.989438,3.51372 22.602478,3.22027 28.870378,-2.28527 l -0.13364,0.0668"
         id="path1230"
         inkscape:connector-curvature="0"
         sodipodi:nodetypes="cscc" />
      <path
         style="fill:none;stroke:#000001;stroke-width:0.26458332px;stroke-linecap:butt;stroke-linejoin:miter;stroke-opacity:1"
         d="m 89.902786,146.56067 c -2.412445,17.95089 28.043414,13.09412 30.861274,2.93996"
         id="path1232"
         inkscape:connector-curvature="0"
         sodipodi:nodetypes="cc" />
      <path
         style="display:inline;fill:none;stroke:#000001;stroke-width:0.26458332px;stroke-linecap:round;stroke-linejoin:round;stroke-opacity:1"
         d="m 89.805895,149.97888 c 3.56396,-0.0343 21.481995,8.10696 26.576455,4.67746"
         id="path1234"
         inkscape:connector-curvature="0"
         sodipodi:nodetypes="cc" />
      <path
         style="display:inline;fill:none;stroke:#000001;stroke-width:0.26458332px;stroke-linecap:round;stroke-linejoin:miter;stroke-opacity:1"
         d="m 106.73033,133.83515 c -1.14504,3.24364 -10.623526,8.3969 1.23612,9.05375"
         id="path1236"
         inkscape:connector-curvature="0"
         sodipodi:nodetypes="cc" />
    </g>
    <path
       style="opacity:1;fill:#b7b7b7;fill-opacity:1;stroke:#000001;stroke-width:0.25293583;stroke-miterlimit:4;stroke-dasharray:none;stroke-opacity:0;stroke-linecap:round;stroke-linejoin:round;filter:url(#filter2282)"
       d="m 413.44978,744.6767 c -11.35717,-0.68851 -19.50658,-1.79957 -29.67323,-4.04557 -42.14576,-9.31073 -80.4244,-33.95603 -106.81292,-68.77036 -22.23233,-29.33109 -35.70656,-64.97221 -39.76439,-105.18213 -0.89856,-8.90402 -1.03123,-12.25045 -1.03123,-26.01143 0,-13.68401 0.13292,-17.13691 1.02557,-26.64278 0.41433,-4.41228 0.89834,-8.58629 0.99564,-8.58629 0.0357,0 1.52738,0.51902 3.31495,1.15339 27.79119,9.86238 59.36426,19.47235 86.10841,26.20901 39.05991,9.83892 71.84545,15.15927 106.92414,17.35136 7.0034,0.43765 27.92769,0.5906 35.73414,0.26121 37.42565,-1.57918 71.42963,-8.6118 108.67487,-22.47587 l 2.10374,-0.7831 -0.14231,2.46338 c -0.0783,1.35487 -0.20607,3.77028 -0.28397,5.36758 -1.258,25.78868 -6.91195,53.1634 -17.96877,86.99939 -2.95723,9.04959 -12.57403,36.78743 -13.97105,40.29674 -19.45061,48.86002 -62.63216,78.93236 -118.18726,82.30756 -3.7654,0.22876 -13.86387,0.28084 -17.04633,0.0879 z m -16.3924,-145.17179 c 17.673,-1.68233 35.11094,-7.9365 46.86487,-16.80821 5.14335,-3.88214 10.00707,-9.73696 11.97114,-14.41055 0.4883,-1.16192 0.96979,-2.26578 1.06997,-2.45301 0.10018,-0.18724 1.2898,-0.98273 2.6436,-1.76777 2.40971,-1.39734 6.03216,-3.88121 7.7287,-5.29948 0.7618,-0.63684 0.82048,-0.77351 0.5495,-1.27985 -0.34473,-0.64413 -0.16433,-0.73294 -2.77042,1.36391 -8.70867,7.00699 -23.22565,12.31718 -39.29059,14.37216 -8.91887,1.14088 -21.87354,1.37541 -30.55711,0.55321 -18.01787,-1.70601 -34.85229,-6.2813 -44.19417,-12.01119 -2.35195,-1.44257 -5.23482,-3.64148 -8.433,-6.43227 -4.60931,-4.02215 -4.30111,-3.80654 -4.77037,-3.33729 -0.37965,0.37966 -0.34871,0.47529 0.40566,1.2536 l 0.81667,0.8426 -0.28309,3.60302 c -0.68907,8.77017 1.20926,17.42084 5.18589,23.63206 6.06661,9.4756 17.32301,15.73048 32.02952,17.79793 4.79218,0.67369 4.77391,0.67252 11.31051,0.72117 3.49808,0.026 7.25888,-0.1055 9.72272,-0.34004 z"
       id="path1242"
       inkscape:connector-curvature="0"
       transform="scale(0.26458333)" />
    <path
       style="opacity:1;fill:#cacaca;fill-opacity:1;stroke:#000001;stroke-width:0.25293583;stroke-miterlimit:4;stroke-dasharray:none;stroke-opacity:1;filter:url(#filter2286)"
       d="m 341.72895,478.5358 c -9.22844,-1.71134 -16.8649,-7.49437 -20.99965,-15.90288 -7.91668,-16.09952 -0.1508,-35.73512 16.42337,-41.52554 5.72045,-1.99852 12.10887,-2.05007 17.83258,-0.1439 1.11225,0.37041 2.02226,0.73181 2.02226,0.8031 0,0.0713 -0.60684,1.05634 -1.34853,2.18897 -2.00363,3.05975 -2.51069,4.42805 -2.63481,7.11011 -0.12636,2.73063 0.37406,4.33518 2.0709,6.64019 2.61129,3.54718 9.2376,7.04512 17.48925,9.23233 l 2.22713,0.59033 0.0832,1.74383 c 0.17826,3.73722 -0.914,8.77829 -2.75168,12.69981 -3.96123,8.45305 -11.35758,14.41633 -20.27749,16.34865 -2.61014,0.56544 -7.66823,0.67272 -10.13651,0.215 z"
       id="path1244"
       inkscape:connector-curvature="0"
       transform="scale(0.26458333)" />
    <path
       style="opacity:1;fill:#cacaca;fill-opacity:1;stroke:#000001;stroke-width:0.25293583;stroke-miterlimit:4;stroke-dasharray:none;stroke-opacity:1;filter:url(#filter2290)"
       d="m 465.34637,482.96116 c -9.58151,-1.31042 -17.81316,-6.73765 -22.59728,-14.89867 -3.69269,-6.29919 -4.97797,-14.03425 -3.51843,-21.17465 3.60488,-17.63598 21.63102,-28.26382 38.78579,-22.86729 3.17205,0.99786 2.98459,0.77209 2.43119,2.92811 -1.80739,7.04163 -0.87337,12.71131 2.73636,16.61025 2.8539,3.08255 7.17088,5.08298 13.40835,6.21323 l 2.33036,0.42226 0.17453,0.91596 c 0.27142,1.42449 -0.33529,6.97125 -1.05318,9.62853 -2.97834,11.02445 -12.07275,19.50783 -23.39475,21.82293 -2.41441,0.49369 -7.13228,0.69621 -9.30294,0.39934 z"
       id="path1246"
       inkscape:connector-curvature="0"
       transform="scale(0.26458333)" />
    <path
       style="opacity:1;fill:#1a1a1a;fill-opacity:1;stroke:#000001;stroke-width:0.04471316;stroke-miterlimit:4;stroke-dasharray:none;stroke-opacity:1;filter:url(#filter2294)"
       d="m 386.12059,598.82998 c -11.92571,-0.24025 -22.20811,-2.79421 -29.95536,-7.44034 -5.64762,-3.38696 -9.88611,-7.82343 -12.63165,-13.22164 -1.25441,-2.46639 -2.2242,-5.22245 -2.83543,-8.05803 -0.18679,-0.86655 -0.50562,-2.68057 -0.4763,-2.7099 0.008,-0.008 0.2945,0.0154 0.63564,0.0531 2.92226,0.32277 7.39694,1.44904 14.83899,3.73495 2.69975,0.82927 4.06589,1.25908 10.26786,3.23046 12.29667,3.90868 17.12303,5.38536 23.39285,7.15731 13.15877,3.71888 23.46807,5.82126 31.65179,6.45478 1.90321,0.14734 2.77328,0.17905 4.91071,0.17899 2.62659,-9e-5 3.88546,-0.0767 5.89286,-0.35875 0.63229,-0.0888 2.09011,-0.35953 2.63393,-0.48908 0.27642,-0.0658 -2.92973,1.56302 -4.48661,2.27941 -8.66079,3.98519 -18.38753,6.79787 -28.39286,8.21036 -3.93513,0.55554 -7.72202,0.86625 -11.74107,0.96336 -1.65937,0.0401 -2.32586,0.0428 -3.70535,0.015 z"
       id="path1250"
       inkscape:connector-curvature="0"
       transform="scale(0.26458333)" />
  </g>
</svg>
